<?xml version="1.0" encoding="utf-8"?>
<!-- Generator: Adobe Illustrator 19.2.0, SVG Export Plug-In . SVG Version: 6.00 Build 0)  -->
<svg version="1.1" id="Capa_1" xmlns="http://www.w3.org/2000/svg" xmlns:xlink="http://www.w3.org/1999/xlink" x="0px" y="0px"
	 viewBox="0 0 32 32" style="enable-background:new 0 0 32 32;" xml:space="preserve">
<style type="text/css">
	.st0{fill:#FFFFFF;}
</style>
<path class="st0" d="M27.6,13.2c-0.2-0.5-0.4-0.9-0.7-1.3c0-0.3,0.1-0.6,0.1-0.9c0-3.3-2.7-6-6-6c-1.5,0-2.9,0.6-4,1.5
	c-1.4-1-3.2-1.5-5-1.5c-4.9,0-8.9,3.9-9,8.8c-1.8,1-3,3-3,5.2c0,3.3,2.7,6,6,6h20c3.3,0,6-2.7,6-6C32,16.2,30.1,13.9,27.6,13.2z
	 M21,7c1.8,0,3.4,1.2,3.9,2.9c-1-0.6-2.1-0.9-3.4-0.9c-0.6,0-1.3,0.1-1.8,0.3c-0.3-0.5-0.7-1-1.1-1.4C19.2,7.3,20.1,7,21,7z M26,23
	H6c-2.2,0-4-1.8-4-4c0-1.9,1.3-3.5,3.1-3.9C5,14.7,5,14.4,5,14c0-3.9,3.1-7,7-7c3.2,0,5.8,2.1,6.7,5c0.8-0.6,1.7-1,2.8-1
	c2.3,0,4.2,1.8,4.5,4l0,0c2.2,0,4,1.8,4,4S28.2,23,26,23z"/>
<path class="st0" d="M27.4,6l1.4-1.4c0.4-0.4,0.4-1,0-1.4s-1-0.4-1.4,0L26,4.6c-0.4,0.4-0.4,1,0,1.4C26.3,6.4,27,6.4,27.4,6z"/>
<path class="st0" d="M21,4c0.6,0,1-0.4,1-1V1c0-0.6-0.4-1-1-1s-1,0.4-1,1v2C20,3.5,20.4,4,21,4z"/>
<path class="st0" d="M28,11c0,0.6,0.4,1,1,1h2c0.6,0,1-0.4,1-1s-0.4-1-1-1h-2C28.5,10,28,10.4,28,11z"/>
</svg>
