<?xml version="1.0" encoding="utf-8"?>
<!-- Generator: Adobe Illustrator 19.2.0, SVG Export Plug-In . SVG Version: 6.00 Build 0)  -->
<svg version="1.1" id="Layer_1" xmlns="http://www.w3.org/2000/svg" xmlns:xlink="http://www.w3.org/1999/xlink" x="0px" y="0px"
	 viewBox="0 0 612 792" style="enable-background:new 0 0 612 792;" xml:space="preserve">
<style type="text/css">
	.st0{fill:#FFFFFF;}
</style>
<g>
	<path class="st0" d="M305.5,210C237.4,210,182,265.4,182,333.5c0,27.4,17.5,72.1,53.5,136.7c25.5,45.7,50.5,83.7,51.6,85.3
		l18.4,27.8l18.4-27.8c1.1-1.6,26.1-39.7,51.6-85.3c36-64.5,53.5-109.2,53.5-136.7C428.9,265.4,373.5,210,305.5,210L305.5,210z
		 M305.5,396.6c-35.3,0-64-28.7-64-64s28.7-64,64-64s64,28.7,64,64C369.5,368,340.8,396.6,305.5,396.6L305.5,396.6z"/>
</g>
</svg>
