<?xml version="1.0" encoding="utf-8"?>
<!-- Generator: Adobe Illustrator 19.2.0, SVG Export Plug-In . SVG Version: 6.00 Build 0)  -->
<svg version="1.1" id="Capa_1" xmlns="http://www.w3.org/2000/svg" xmlns:xlink="http://www.w3.org/1999/xlink" x="0px" y="0px"
	 viewBox="0 0 305.4 305.4" style="enable-background:new 0 0 305.4 305.4;" xml:space="preserve">
<style type="text/css">
	.st0{fill:#FFFFFF;}
</style>
<path class="st0" d="M304.8,182.2c-1-2.5-3.3-4.2-5.9-4.6c-24.4-3.2-45.4-19.4-54.8-42.1c-9.4-22.7-5.9-49,9-68.5c1.6-2.1,2-5,1-7.4
	c-1-2.5-3.3-4.2-5.9-4.6c-14.6-1.9-29.5,0-43.2,5.7c-25.8,10.7-44,32.9-49.9,59c-12-13.5-29.6-21.9-48.5-21.9
	c-35.3,0-64.1,28.2-64.1,62.8c0,0.1,0,0.2,0,0.4C18.7,162.8,0,182.3,0,206c0,24.9,20.6,45.1,46,45.1h123.3
	c22.2,0,41.6-12.2,51.5-30.2c5.4,1.1,10.9,1.6,16.4,1.6c10.9,0,21.8-2.2,32.1-6.5c13.6-5.7,25.6-14.8,34.6-26.5
	C305.4,187.5,305.8,184.6,304.8,182.2z M169.3,236.1H46c-17.1,0-31-13.5-31-30.1c0-16.6,13.9-30.1,31-30.1c1.1,0,2.2,0.1,3.7,0.2
	c2.3,0.3,4.6-0.6,6.2-2.2c1.6-1.7,2.4-4,2-6.3c-0.3-2.4-0.5-4.7-0.5-7c0-26.4,22-47.8,49.1-47.8c21.5,0,40.7,13.9,47,33.9
	c0.1,0.3,0.2,0.6,0.3,0.8c1.3,3.2,4.7,5.2,8.2,4.6c2.4-0.4,4.9-0.6,7.4-0.6c23.9,0,43.4,19,43.4,42.3
	C212.7,217.1,193.3,236.1,169.3,236.1z M263.5,202.3c-12,5-24.7,6.4-37.3,4.4c1-4.1,1.5-8.4,1.5-12.8c0-31.6-26.2-57.3-58.4-57.3
	c-0.5,0-0.9,0-1.4,0c0.6-27.1,17.1-51.5,42.7-62.1c7.4-3.1,15.2-4.8,23.1-5.2c-11.8,22-13.3,48.5-3.6,71.9
	c9.7,23.4,29.5,41.1,53.4,48.3C277.7,194.9,270.9,199.2,263.5,202.3z"/>
</svg>
