<?xml version="1.0" encoding="utf-8"?>
<!-- Generator: Adobe Illustrator 19.2.0, SVG Export Plug-In . SVG Version: 6.00 Build 0)  -->
<svg version="1.1" id="Capa_1" xmlns="http://www.w3.org/2000/svg" xmlns:xlink="http://www.w3.org/1999/xlink" x="0px" y="0px"
	 viewBox="0 0 32 32" style="enable-background:new 0 0 32 32;" xml:space="preserve">
<style type="text/css">
	.st0{fill:#FFFFFF;}
</style>
<path class="st0" d="M27.6,13.2c-0.2-0.5-0.4-0.9-0.7-1.3c0-0.3,0.1-0.6,0.1-0.9c0-3.3-2.7-6-6-6c-1.5,0-2.9,0.6-4,1.5
	c-1.4-1-3.2-1.5-5-1.5c-4.9,0-8.9,3.9-9,8.8c-1.8,1-3,3-3,5.2c0,3.3,2.7,6,6,6h20c3.3,0,6-2.7,6-6C32,16.2,30.1,13.9,27.6,13.2z
	 M21,7c1.8,0,3.4,1.2,3.9,2.9c-1-0.6-2.1-0.9-3.4-0.9c-0.6,0-1.3,0.1-1.8,0.3c-0.3-0.5-0.7-1-1.1-1.4C19.2,7.3,20.1,7,21,7z M26,23
	H6c-2.2,0-4-1.8-4-4c0-1.9,1.3-3.5,3.1-3.9C5,14.7,5,14.4,5,14c0-3.9,3.1-7,7-7c3.2,0,5.8,2.1,6.7,5c0.8-0.6,1.7-1,2.8-1
	c2.3,0,4.2,1.8,4.5,4h0c2.2,0,4,1.8,4,4C30,21.2,28.2,23,26,23z"/>
<path class="st0" d="M3.4,26.6c-0.4-0.4-1-0.4-1.4,0L0.6,28c-0.4,0.4-0.4,1,0,1.4c0.4,0.4,1,0.4,1.4,0L3.4,28
	C3.8,27.6,3.8,27,3.4,26.6z"/>
<path class="st0" d="M7.7,28.3c-0.4-0.4-1-0.4-1.4,0l-1.4,1.4c-0.4,0.4-0.4,1,0,1.4c0.4,0.4,1,0.4,1.4,0l1.4-1.4
	C8.1,29.3,8.1,28.7,7.7,28.3z"/>
<path class="st0" d="M12,25.8c-0.4-0.4-1-0.4-1.4,0l-1.4,1.4c-0.4,0.4-0.4,1,0,1.4c0.4,0.4,1,0.4,1.4,0l1.4-1.4
	C12.4,26.8,12.4,26.2,12,25.8z"/>
<path class="st0" d="M16.3,28.3c-0.4-0.4-1-0.4-1.4,0l-1.4,1.4c-0.4,0.4-0.4,1,0,1.4c0.4,0.4,1,0.4,1.4,0l1.4-1.4
	C16.6,29.3,16.7,28.7,16.3,28.3z"/>
<path class="st0" d="M20.5,25.8c-0.4-0.4-1-0.4-1.4,0l-1.4,1.4c-0.4,0.4-0.4,1,0,1.4c0.4,0.4,1,0.4,1.4,0l1.4-1.4
	C20.9,26.8,20.9,26.2,20.5,25.8z"/>
<path class="st0" d="M24.8,28c-0.4-0.4-1-0.4-1.4,0L22,29.4c-0.4,0.4-0.4,1,0,1.4c0.4,0.4,1,0.4,1.4,0l1.4-1.4
	C25.2,29,25.2,28.4,24.8,28z"/>
</svg>
